<svg version="1.1" id="Layer_1" xmlns="http://www.w3.org/2000/svg" xmlns:xlink="http://www.w3.org/1999/xlink" x="0px" y="0px"
	 width="100%" viewBox="0 0 1600 900" enable-background="new 0 0 1600 900" xml:space="preserve">
<path fill="#0D141E" opacity="1.000000" stroke="none" 
	d="
M927.000000,901.000000 
	C618.000000,901.000000 309.500000,901.000000 1.000000,901.000000 
	C1.000000,601.000000 1.000000,301.000000 1.000000,1.000000 
	C534.333313,1.000000 1067.666626,1.000000 1601.000000,1.000000 
	C1601.000000,301.000000 1601.000000,601.000000 1601.000000,901.000000 
	C1376.500000,901.000000 1152.000000,901.000000 927.000000,901.000000 
M918.497742,719.739685 
	C1028.319946,719.745605 1138.142090,719.754333 1247.964233,719.752197 
	C1256.645874,719.752075 1258.845825,717.777100 1258.846069,710.059509 
	C1258.850342,538.414856 1258.850464,366.770172 1258.844727,195.125488 
	C1258.844482,187.645508 1256.511597,185.367172 1248.982910,185.366821 
	C1203.165649,185.364700 1157.348267,185.362305 1111.531006,185.361130 
	C1030.893066,185.359055 950.255127,185.354141 869.617188,185.361206 
	C860.460754,185.362000 858.280090,187.602310 858.279785,196.843491 
	C858.279053,218.174088 858.279541,239.504700 858.279541,260.835297 
	C858.279541,410.149506 858.278259,559.463684 858.282837,708.777893 
	C858.283142,717.609436 860.362122,719.742371 869.075134,719.760925 
	C885.215759,719.795349 901.356506,719.779907 918.497742,719.739685 
M791.933899,386.500000 
	C791.933899,323.002228 791.938293,259.504456 791.928406,196.006683 
	C791.927124,187.850037 789.649658,185.560776 781.612671,185.559372 
	C744.282593,185.552841 706.952576,185.555847 669.622498,185.558701 
	C659.900879,185.559448 658.270935,187.178360 658.270508,196.849884 
	C658.268005,257.845825 658.209717,318.841949 658.380859,379.837433 
	C658.394714,384.775177 656.878174,385.918182 652.182983,385.899231 
	C611.561218,385.735382 570.938416,385.814087 530.315979,385.798798 
	C528.572510,385.798157 526.829102,385.585571 524.812134,385.453857 
	C524.812134,382.875671 524.812134,380.891632 524.812134,378.907593 
	C524.812134,318.078308 524.812256,257.248993 524.811890,196.419708 
	C524.811829,187.426849 522.984192,185.560074 514.129822,185.559006 
	C476.799774,185.554504 439.469696,185.555527 402.139648,185.555832 
	C393.294006,185.555893 391.545135,187.249405 391.544922,195.929214 
	C391.540710,367.251160 391.541077,538.573120 391.544098,709.895081 
	C391.544250,717.638000 393.507019,719.660278 401.272034,719.665283 
	C439.102875,719.689697 476.933685,719.688599 514.764526,719.666321 
	C522.728699,719.661682 524.810242,717.535767 524.810547,709.649841 
	C524.813416,648.320557 524.812195,586.991333 524.812195,525.662048 
	C524.812195,523.734802 524.812195,521.807556 524.812195,519.724243 
	C526.883240,519.599792 528.195557,519.452393 529.507935,519.452026 
	C570.837769,519.439697 612.167786,519.505554 653.497009,519.345032 
	C657.732666,519.328613 658.341980,520.909729 658.336304,524.586792 
	C658.242004,585.915894 658.268738,647.245178 658.269592,708.574463 
	C658.269714,717.773682 660.161804,719.673096 669.380798,719.674316 
	C706.378357,719.679260 743.375854,719.678284 780.373413,719.675110 
	C790.121521,719.674255 791.932739,717.840210 791.932861,707.978699 
	C791.934326,601.152466 791.933838,494.326233 791.933899,386.500000 
z"/>
<path fill="#00E964" opacity="1.000000" stroke="none" 
	d="
M917.997437,719.762451 
	C901.356506,719.779907 885.215759,719.795349 869.075134,719.760925 
	C860.362122,719.742371 858.283142,717.609436 858.282837,708.777893 
	C858.278259,559.463684 858.279541,410.149506 858.279541,260.835297 
	C858.279541,239.504700 858.279053,218.174088 858.279785,196.843491 
	C858.280090,187.602310 860.460754,185.362000 869.617188,185.361206 
	C950.255127,185.354141 1030.893066,185.359055 1111.531006,185.361130 
	C1157.348267,185.362305 1203.165649,185.364700 1248.982910,185.366821 
	C1256.511597,185.367172 1258.844482,187.645508 1258.844727,195.125488 
	C1258.850464,366.770172 1258.850342,538.414856 1258.846069,710.059509 
	C1258.845825,717.777100 1256.645874,719.752075 1247.964233,719.752197 
	C1138.142090,719.754333 1028.319946,719.745605 917.997437,719.762451 
z"/>
<path fill="#FEFEFE" opacity="1.000000" stroke="none" 
	d="
M791.933899,387.000000 
	C791.933838,494.326233 791.934326,601.152466 791.932861,707.978699 
	C791.932739,717.840210 790.121521,719.674255 780.373413,719.675110 
	C743.375854,719.678284 706.378357,719.679260 669.380798,719.674316 
	C660.161804,719.673096 658.269714,717.773682 658.269592,708.574463 
	C658.268738,647.245178 658.242004,585.915894 658.336304,524.586792 
	C658.341980,520.909729 657.732666,519.328613 653.497009,519.345032 
	C612.167786,519.505554 570.837769,519.439697 529.507935,519.452026 
	C528.195557,519.452393 526.883240,519.599792 524.812195,519.724243 
	C524.812195,521.807556 524.812195,523.734802 524.812195,525.662048 
	C524.812195,586.991333 524.813416,648.320557 524.810547,709.649841 
	C524.810242,717.535767 522.728699,719.661682 514.764526,719.666321 
	C476.933685,719.688599 439.102875,719.689697 401.272034,719.665283 
	C393.507019,719.660278 391.544250,717.638000 391.544098,709.895081 
	C391.541077,538.573120 391.540710,367.251160 391.544922,195.929214 
	C391.545135,187.249405 393.294006,185.555893 402.139648,185.555832 
	C439.469696,185.555527 476.799774,185.554504 514.129822,185.559006 
	C522.984192,185.560074 524.811829,187.426849 524.811890,196.419708 
	C524.812256,257.248993 524.812134,318.078308 524.812134,378.907593 
	C524.812134,380.891632 524.812134,382.875671 524.812134,385.453857 
	C526.829102,385.585571 528.572510,385.798157 530.315979,385.798798 
	C570.938416,385.814087 611.561218,385.735382 652.182983,385.899231 
	C656.878174,385.918182 658.394714,384.775177 658.380859,379.837433 
	C658.209717,318.841949 658.268005,257.845825 658.270508,196.849884 
	C658.270935,187.178360 659.900879,185.559448 669.622498,185.558701 
	C706.952576,185.555847 744.282593,185.552841 781.612671,185.559372 
	C789.649658,185.560776 791.927124,187.850037 791.928406,196.006683 
	C791.938293,259.504456 791.933899,323.002228 791.933899,387.000000 
z"/>
</svg>